<svg width="526" height="236" viewBox="0 0 526 236" fill="none" xmlns="http://www.w3.org/2000/svg">
<g clip-path="url(#clip0)">
<path d="M0 213.772V12.2467C0 5.48606 5.00776 0 11.1789 0H514.821C520.992 0 526 5.48606 526 12.2467V213.753C526 220.514 520.992 226 514.821 226H11.1789C5.00776 226.018 0 220.532 0 213.772Z" fill="white"/>
<path d="M36.4452 15.6399H15.6398V184.36H35.8921L36.4452 184.217V21.5577V19.4301V15.6399Z" fill="black"/>
<path d="M167.237 15.6399L149.287 64.7524L142.274 83.954L114.885 159.08L87.9769 83.954L81.1965 64.7524L63.4958 15.6399H42.0659H40.4243L102.787 184.36H126.001L189.577 15.6399H187.543H167.237Z" fill="black"/>
<path d="M214.308 170.737V15.6399H193.485V19.4302V26.7604V184.36H194.573H212.791H214.308V180.57V170.737Z" fill="black"/>
<path d="M305.06 15.6399H281.863L218.269 184.36H221.606H236.22H239.86L257.775 134.694L264.805 115.492L292.159 40.4018L319.031 115.492L325.811 134.694L343.476 184.36H346.028H364.871H367.44L305.06 15.6399Z" fill="black"/>
<path d="M392.153 173.812V15.6399H371.348V171.684V180.57V184.36H381.037H387.674H390.672H392.153V180.57V173.812Z" fill="black"/>
<path d="M415.189 163.514L394.366 184.36H399.505H422.433H509.456V163.514H415.189Z" fill="black"/>
<path d="M18.022 194.362C19.448 197.297 20.8843 200.149 22.331 202.918C23.7983 205.687 25.3277 208.529 26.919 211.443C27.1257 211.05 27.4253 210.492 27.818 209.769C28.2107 209.025 28.6653 208.178 29.182 207.227C29.6987 206.276 30.2463 205.253 30.825 204.158C31.4243 203.042 32.0237 201.916 32.623 200.779C33.243 199.642 33.8527 198.526 34.452 197.431C35.0513 196.336 35.6093 195.313 36.126 194.362H36.529C36.7563 196.346 36.963 198.268 37.149 200.128C37.3557 201.967 37.5623 203.786 37.769 205.584C37.9757 207.361 38.1823 209.128 38.389 210.885C38.5957 212.621 38.823 214.347 39.071 216.062C38.823 216.021 38.575 216 38.327 216C38.0997 216 37.862 216 37.614 216C37.366 216 37.118 216 36.87 216C36.6427 216 36.405 216.021 36.157 216.062C35.9297 213.313 35.7023 210.647 35.475 208.064C35.2477 205.481 34.9687 202.846 34.638 200.159H34.576C33.15 202.763 31.7447 205.357 30.36 207.94C28.996 210.503 27.694 213.189 26.454 216H26.175C24.935 213.396 23.633 210.792 22.269 208.188C20.9257 205.563 19.572 202.887 18.208 200.159H18.146C18.0013 201.44 17.836 202.835 17.65 204.344C17.4847 205.832 17.3297 207.31 17.185 208.777C17.0403 210.224 16.9163 211.598 16.813 212.9C16.7097 214.181 16.658 215.235 16.658 216.062C16.3273 216.021 15.9657 216 15.573 216C15.1803 216 14.8187 216.021 14.488 216.062C14.7567 214.388 15.0357 212.621 15.325 210.761C15.6143 208.901 15.8933 207.031 16.162 205.15C16.4307 203.269 16.6787 201.42 16.906 199.601C17.1333 197.762 17.3297 196.015 17.495 194.362H18.022ZM46.1868 202.763C46.1868 201.399 46.1558 200.056 46.0938 198.733C46.0525 197.41 46.0008 196.088 45.9388 194.765C46.8688 194.806 47.7885 194.848 48.6978 194.889C49.6278 194.91 50.5578 194.92 51.4878 194.92C52.4178 194.92 53.3375 194.91 54.2468 194.889C55.1562 194.848 56.0758 194.806 57.0058 194.765C56.9438 195.075 56.9128 195.385 56.9128 195.695C56.9128 196.005 56.9438 196.315 57.0058 196.625C56.3445 196.584 55.7348 196.542 55.1768 196.501C54.6395 196.46 54.0608 196.418 53.4408 196.377C52.8415 196.336 52.1802 196.305 51.4568 196.284C50.7335 196.243 49.8655 196.222 48.8528 196.222C48.8322 196.883 48.8012 197.514 48.7598 198.113C48.7392 198.712 48.7288 199.394 48.7288 200.159C48.7288 200.965 48.7288 201.75 48.7288 202.515C48.7495 203.28 48.7598 203.858 48.7598 204.251C49.6692 204.251 50.4855 204.241 51.2088 204.22C51.9322 204.199 52.5935 204.179 53.1928 204.158C53.7922 204.117 54.3398 204.086 54.8358 204.065C55.3525 204.024 55.8382 203.982 56.2928 203.941C56.2308 204.251 56.1998 204.571 56.1998 204.902C56.1998 205.212 56.2308 205.522 56.2928 205.832C55.7555 205.77 55.1252 205.718 54.4018 205.677C53.6992 205.636 52.9862 205.615 52.2628 205.615C51.5602 205.594 50.8885 205.584 50.2478 205.584C49.6278 205.563 49.1318 205.553 48.7598 205.553C48.7598 205.739 48.7495 205.946 48.7288 206.173C48.7288 206.38 48.7288 206.648 48.7288 206.979V208.188V210.048C48.7288 211.226 48.7288 212.197 48.7288 212.962C48.7495 213.727 48.7702 214.305 48.7908 214.698C49.4728 214.698 50.1962 214.698 50.9608 214.698C51.7462 214.698 52.5108 214.688 53.2548 214.667C54.0195 214.626 54.7325 214.584 55.3938 214.543C56.0758 214.481 56.6648 214.398 57.1608 214.295C57.1195 214.44 57.0885 214.605 57.0678 214.791C57.0678 214.956 57.0678 215.111 57.0678 215.256C57.0678 215.587 57.0988 215.855 57.1608 216.062C56.2308 216.021 55.3008 216 54.3708 216C53.4615 216 52.5315 216 51.5808 216C50.6302 216 49.6898 216 48.7598 216C47.8298 216 46.8895 216.021 45.9388 216.062C46.0008 214.739 46.0525 213.427 46.0938 212.125C46.1558 210.802 46.1868 209.459 46.1868 208.095V202.763ZM64.2868 202.794C64.2868 201.43 64.2558 200.097 64.1938 198.795C64.1525 197.472 64.1008 196.129 64.0388 194.765C64.8242 194.806 65.5992 194.848 66.3638 194.889C67.1492 194.91 67.9345 194.92 68.7198 194.92C69.5052 194.92 70.2802 194.899 71.0448 194.858C71.8302 194.796 72.6155 194.765 73.4008 194.765C75.2195 194.765 76.7695 195.003 78.0508 195.478C79.3528 195.953 80.4172 196.635 81.2438 197.524C82.0705 198.392 82.6698 199.467 83.0418 200.748C83.4345 202.009 83.6308 203.435 83.6308 205.026C83.6308 207.093 83.2692 208.839 82.5458 210.265C81.8432 211.67 80.9338 212.807 79.8178 213.675C78.7225 214.543 77.5032 215.163 76.1598 215.535C74.8372 215.886 73.5662 216.062 72.3468 216.062C71.6442 216.062 70.9518 216.052 70.2698 216.031C69.5878 216.01 68.8955 216 68.1928 216C67.4902 216 66.7978 216 66.1158 216C65.4338 216 64.7415 216.021 64.0388 216.062C64.1008 214.781 64.1525 213.479 64.1938 212.156C64.2558 210.833 64.2868 209.49 64.2868 208.126V202.794ZM66.8288 208.126C66.8288 210.358 66.8908 212.549 67.0148 214.698C67.4488 214.801 68.0378 214.884 68.7818 214.946C69.5258 214.987 70.2905 215.008 71.0758 215.008C72.2125 215.008 73.3492 214.874 74.4858 214.605C75.6225 214.336 76.6352 213.83 77.5238 213.086C78.4332 212.342 79.1668 211.329 79.7248 210.048C80.3035 208.746 80.5928 207.072 80.5928 205.026C80.5928 203.228 80.3655 201.75 79.9108 200.593C79.4768 199.436 78.8672 198.526 78.0818 197.865C77.3172 197.183 76.3975 196.718 75.3228 196.47C74.2482 196.201 73.0702 196.067 71.7888 196.067C70.8588 196.067 69.9908 196.098 69.1848 196.16C68.3788 196.222 67.6555 196.294 67.0148 196.377C66.9528 197.369 66.9012 198.413 66.8598 199.508C66.8392 200.583 66.8288 201.678 66.8288 202.794V208.126ZM91.0148 202.794C91.0148 201.43 90.9838 200.097 90.9218 198.795C90.8804 197.472 90.8288 196.129 90.7668 194.765C91.0354 194.806 91.2938 194.848 91.5418 194.889C91.7898 194.91 92.0378 194.92 92.2858 194.92C92.5338 194.92 92.7818 194.91 93.0298 194.889C93.2778 194.848 93.5361 194.806 93.8048 194.765C93.7428 196.129 93.6808 197.472 93.6188 198.795C93.5774 200.097 93.5568 201.43 93.5568 202.794V208.126C93.5568 209.49 93.5774 210.833 93.6188 212.156C93.6808 213.479 93.7428 214.781 93.8048 216.062C93.3294 216.021 92.8231 216 92.2858 216C91.7484 216 91.2421 216.021 90.7668 216.062C90.8288 214.781 90.8804 213.479 90.9218 212.156C90.9838 210.833 91.0148 209.49 91.0148 208.126V202.794ZM105.622 206.421C106.159 206.421 106.717 206.431 107.296 206.452C107.874 206.473 108.432 206.483 108.97 206.483C109.548 206.483 110.127 206.483 110.706 206.483C111.284 206.462 111.863 206.442 112.442 206.421L109.001 198.547L105.622 206.421ZM119.355 216.062C119.065 216.021 118.786 216 118.518 216C118.27 216 118.001 216 117.712 216C117.422 216 117.143 216 116.875 216C116.627 216 116.358 216.021 116.069 216.062C115.924 215.587 115.728 215.018 115.48 214.357C115.232 213.675 114.953 212.972 114.643 212.249C114.353 211.505 114.054 210.761 113.744 210.017C113.434 209.252 113.144 208.529 112.876 207.847C112.214 207.826 111.543 207.816 110.861 207.816C110.179 207.795 109.497 207.785 108.815 207.785C108.174 207.785 107.544 207.795 106.924 207.816C106.304 207.816 105.673 207.826 105.033 207.847C104.371 209.459 103.772 210.999 103.235 212.466C102.697 213.913 102.294 215.111 102.026 216.062C101.674 216.021 101.292 216 100.879 216C100.465 216 100.083 216.021 99.7317 216.062C101.406 212.445 103.038 208.849 104.63 205.274C106.221 201.699 107.823 198.061 109.435 194.362H110.024C110.52 195.561 111.057 196.863 111.636 198.268C112.214 199.653 112.803 201.058 113.403 202.484C114.002 203.91 114.601 205.326 115.201 206.731C115.8 208.136 116.358 209.449 116.875 210.668C117.412 211.867 117.887 212.941 118.301 213.892C118.735 214.843 119.086 215.566 119.355 216.062ZM128.898 206.421C129.436 206.421 129.994 206.431 130.572 206.452C131.151 206.473 131.709 206.483 132.246 206.483C132.825 206.483 133.404 206.483 133.982 206.483C134.561 206.462 135.14 206.442 135.718 206.421L132.277 198.547L128.898 206.421ZM142.631 216.062C142.342 216.021 142.063 216 141.794 216C141.546 216 141.278 216 140.988 216C140.699 216 140.42 216 140.151 216C139.903 216 139.635 216.021 139.345 216.062C139.201 215.587 139.004 215.018 138.756 214.357C138.508 213.675 138.229 212.972 137.919 212.249C137.63 211.505 137.33 210.761 137.02 210.017C136.71 209.252 136.421 208.529 136.152 207.847C135.491 207.826 134.819 207.816 134.137 207.816C133.455 207.795 132.773 207.785 132.091 207.785C131.451 207.785 130.82 207.795 130.2 207.816C129.58 207.816 128.95 207.826 128.309 207.847C127.648 209.459 127.049 210.999 126.511 212.466C125.974 213.913 125.571 215.111 125.302 216.062C124.951 216.021 124.569 216 124.155 216C123.742 216 123.36 216.021 123.008 216.062C124.682 212.445 126.315 208.849 127.906 205.274C129.498 201.699 131.099 198.061 132.711 194.362H133.3C133.796 195.561 134.334 196.863 134.912 198.268C135.491 199.653 136.08 201.058 136.679 202.484C137.279 203.91 137.878 205.326 138.477 206.731C139.077 208.136 139.635 209.449 140.151 210.668C140.689 211.867 141.164 212.941 141.577 213.892C142.011 214.843 142.363 215.566 142.631 216.062ZM148.796 202.794C148.796 201.43 148.765 200.097 148.703 198.795C148.662 197.472 148.61 196.129 148.548 194.765C149.148 194.806 149.737 194.848 150.315 194.889C150.894 194.91 151.483 194.92 152.082 194.92C152.682 194.92 153.271 194.899 153.849 194.858C154.428 194.796 155.017 194.765 155.616 194.765C156.484 194.765 157.311 194.848 158.096 195.013C158.882 195.178 159.564 195.457 160.142 195.85C160.742 196.222 161.207 196.718 161.537 197.338C161.889 197.958 162.064 198.733 162.064 199.663C162.064 200.655 161.837 201.513 161.382 202.236C160.948 202.939 160.411 203.528 159.77 204.003C159.13 204.458 158.437 204.819 157.693 205.088C156.97 205.336 156.309 205.501 155.709 205.584C155.957 205.894 156.298 206.328 156.732 206.886C157.166 207.444 157.652 208.064 158.189 208.746C158.727 209.407 159.285 210.11 159.863 210.854C160.442 211.577 161 212.28 161.537 212.962C162.075 213.623 162.581 214.233 163.056 214.791C163.532 215.349 163.914 215.773 164.203 216.062C163.893 216.021 163.583 216 163.273 216C162.963 216 162.653 216 162.343 216C162.054 216 161.754 216 161.444 216C161.134 216 160.835 216.021 160.545 216.062C160.235 215.628 159.76 214.977 159.119 214.109C158.499 213.241 157.807 212.311 157.042 211.319C156.278 210.327 155.492 209.345 154.686 208.374C153.901 207.382 153.178 206.545 152.516 205.863H151.338V208.126C151.338 209.49 151.359 210.833 151.4 212.156C151.462 213.479 151.524 214.781 151.586 216.062C151.111 216.021 150.605 216 150.067 216C149.53 216 149.024 216.021 148.548 216.062C148.61 214.781 148.662 213.479 148.703 212.156C148.765 210.833 148.796 209.49 148.796 208.126V202.794ZM151.338 204.561C151.628 204.623 151.938 204.664 152.268 204.685C152.62 204.706 153.002 204.716 153.415 204.716C154.056 204.716 154.717 204.644 155.399 204.499C156.102 204.354 156.743 204.106 157.321 203.755C157.9 203.383 158.375 202.897 158.747 202.298C159.14 201.678 159.336 200.903 159.336 199.973C159.336 199.167 159.181 198.506 158.871 197.989C158.582 197.452 158.2 197.028 157.724 196.718C157.249 196.408 156.732 196.201 156.174 196.098C155.616 195.974 155.069 195.912 154.531 195.912C153.808 195.912 153.209 195.933 152.733 195.974C152.258 195.995 151.855 196.026 151.524 196.067C151.483 197.204 151.442 198.33 151.4 199.446C151.359 200.562 151.338 201.678 151.338 202.794V204.561ZM186.374 214.791C186.188 214.956 185.889 215.142 185.475 215.349C185.083 215.535 184.597 215.711 184.018 215.876C183.46 216.021 182.83 216.155 182.127 216.279C181.425 216.403 180.691 216.465 179.926 216.465C178.294 216.465 176.785 216.238 175.4 215.783C174.016 215.308 172.817 214.595 171.804 213.644C170.812 212.693 170.027 211.536 169.448 210.172C168.89 208.787 168.611 207.217 168.611 205.46C168.611 203.703 168.89 202.143 169.448 200.779C170.027 199.394 170.823 198.227 171.835 197.276C172.869 196.325 174.098 195.602 175.524 195.106C176.95 194.61 178.521 194.362 180.236 194.362C181.6 194.362 182.84 194.507 183.956 194.796C185.093 195.065 186.095 195.395 186.963 195.788C186.798 196.077 186.664 196.47 186.56 196.966C186.457 197.462 186.374 197.875 186.312 198.206L186.126 198.268C185.92 198.02 185.63 197.741 185.258 197.431C184.886 197.121 184.452 196.821 183.956 196.532C183.46 196.243 182.902 196.005 182.282 195.819C181.662 195.612 180.98 195.509 180.236 195.509C179.017 195.509 177.88 195.705 176.826 196.098C175.793 196.491 174.884 197.1 174.098 197.927C173.334 198.733 172.734 199.766 172.3 201.027C171.866 202.267 171.649 203.745 171.649 205.46C171.649 207.175 171.866 208.663 172.3 209.924C172.734 211.164 173.334 212.197 174.098 213.024C174.884 213.83 175.793 214.429 176.826 214.822C177.88 215.215 179.017 215.411 180.236 215.411C180.98 215.411 181.662 215.318 182.282 215.132C182.923 214.946 183.502 214.729 184.018 214.481C184.556 214.212 185.031 213.933 185.444 213.644C185.878 213.334 186.24 213.065 186.529 212.838L186.653 212.962L186.374 214.791ZM209.124 202.794C209.124 201.43 209.093 200.097 209.031 198.795C208.99 197.472 208.938 196.129 208.876 194.765C209.145 194.806 209.403 194.848 209.651 194.889C209.899 194.91 210.147 194.92 210.395 194.92C210.643 194.92 210.891 194.91 211.139 194.889C211.387 194.848 211.645 194.806 211.914 194.765C211.852 196.129 211.79 197.472 211.728 198.795C211.687 200.097 211.666 201.43 211.666 202.794V208.126C211.666 209.49 211.687 210.833 211.728 212.156C211.79 213.479 211.852 214.781 211.914 216.062C211.439 216.021 210.932 216 210.395 216C209.858 216 209.351 216.021 208.876 216.062C208.938 214.781 208.99 213.479 209.031 212.156C209.093 210.833 209.124 209.49 209.124 208.126V205.336C208.008 205.315 206.923 205.305 205.869 205.305C204.836 205.284 203.761 205.274 202.645 205.274C201.529 205.274 200.444 205.284 199.39 205.305C198.357 205.305 197.282 205.315 196.166 205.336V208.126C196.166 209.49 196.187 210.833 196.228 212.156C196.29 213.479 196.352 214.781 196.414 216.062C195.939 216.021 195.432 216 194.895 216C194.358 216 193.851 216.021 193.376 216.062C193.438 214.781 193.49 213.479 193.531 212.156C193.593 210.833 193.624 209.49 193.624 208.126V202.794C193.624 201.43 193.593 200.097 193.531 198.795C193.49 197.472 193.438 196.129 193.376 194.765C193.645 194.806 193.903 194.848 194.151 194.889C194.399 194.91 194.647 194.92 194.895 194.92C195.143 194.92 195.391 194.91 195.639 194.889C195.887 194.848 196.145 194.806 196.414 194.765C196.352 196.129 196.29 197.472 196.228 198.795C196.187 200.097 196.166 201.43 196.166 202.794V203.879C197.282 203.9 198.357 203.92 199.39 203.941C200.444 203.962 201.529 203.972 202.645 203.972C203.761 203.972 204.836 203.962 205.869 203.941C206.923 203.92 208.008 203.9 209.124 203.879V202.794ZM220.352 202.763C220.352 201.399 220.321 200.056 220.259 198.733C220.218 197.41 220.166 196.088 220.104 194.765C221.034 194.806 221.954 194.848 222.863 194.889C223.793 194.91 224.723 194.92 225.653 194.92C226.583 194.92 227.503 194.91 228.412 194.889C229.321 194.848 230.241 194.806 231.171 194.765C231.109 195.075 231.078 195.385 231.078 195.695C231.078 196.005 231.109 196.315 231.171 196.625C230.51 196.584 229.9 196.542 229.342 196.501C228.805 196.46 228.226 196.418 227.606 196.377C227.007 196.336 226.345 196.305 225.622 196.284C224.899 196.243 224.031 196.222 223.018 196.222C222.997 196.883 222.966 197.514 222.925 198.113C222.904 198.712 222.894 199.394 222.894 200.159C222.894 200.965 222.894 201.75 222.894 202.515C222.915 203.28 222.925 203.858 222.925 204.251C223.834 204.251 224.651 204.241 225.374 204.22C226.097 204.199 226.759 204.179 227.358 204.158C227.957 204.117 228.505 204.086 229.001 204.065C229.518 204.024 230.003 203.982 230.458 203.941C230.396 204.251 230.365 204.571 230.365 204.902C230.365 205.212 230.396 205.522 230.458 205.832C229.921 205.77 229.29 205.718 228.567 205.677C227.864 205.636 227.151 205.615 226.428 205.615C225.725 205.594 225.054 205.584 224.413 205.584C223.793 205.563 223.297 205.553 222.925 205.553C222.925 205.739 222.915 205.946 222.894 206.173C222.894 206.38 222.894 206.648 222.894 206.979V208.188V210.048C222.894 211.226 222.894 212.197 222.894 212.962C222.915 213.727 222.935 214.305 222.956 214.698C223.638 214.698 224.361 214.698 225.126 214.698C225.911 214.698 226.676 214.688 227.42 214.667C228.185 214.626 228.898 214.584 229.559 214.543C230.241 214.481 230.83 214.398 231.326 214.295C231.285 214.44 231.254 214.605 231.233 214.791C231.233 214.956 231.233 215.111 231.233 215.256C231.233 215.587 231.264 215.855 231.326 216.062C230.396 216.021 229.466 216 228.536 216C227.627 216 226.697 216 225.746 216C224.795 216 223.855 216 222.925 216C221.995 216 221.055 216.021 220.104 216.062C220.166 214.739 220.218 213.427 220.259 212.125C220.321 210.802 220.352 209.459 220.352 208.095V202.763ZM236.716 205.46C236.716 203.703 236.995 202.143 237.553 200.779C238.132 199.394 238.927 198.227 239.94 197.276C240.973 196.325 242.203 195.602 243.629 195.106C245.055 194.61 246.615 194.362 248.31 194.362C250.025 194.362 251.596 194.61 253.022 195.106C254.448 195.602 255.667 196.325 256.68 197.276C257.713 198.227 258.509 199.394 259.067 200.779C259.646 202.143 259.935 203.703 259.935 205.46C259.935 207.217 259.646 208.787 259.067 210.172C258.509 211.536 257.713 212.693 256.68 213.644C255.667 214.595 254.448 215.308 253.022 215.783C251.596 216.238 250.025 216.465 248.31 216.465C246.615 216.465 245.055 216.238 243.629 215.783C242.203 215.308 240.973 214.595 239.94 213.644C238.927 212.693 238.132 211.536 237.553 210.172C236.995 208.787 236.716 207.217 236.716 205.46ZM256.897 205.46C256.897 203.745 256.68 202.267 256.246 201.027C255.812 199.766 255.202 198.733 254.417 197.927C253.652 197.1 252.743 196.491 251.689 196.098C250.656 195.705 249.529 195.509 248.31 195.509C247.111 195.509 245.985 195.705 244.931 196.098C243.898 196.491 242.988 197.1 242.203 197.927C241.438 198.733 240.839 199.766 240.405 201.027C239.971 202.267 239.754 203.745 239.754 205.46C239.754 207.175 239.971 208.663 240.405 209.924C240.839 211.164 241.438 212.197 242.203 213.024C242.988 213.83 243.898 214.429 244.931 214.822C245.985 215.215 247.111 215.411 248.31 215.411C249.529 215.411 250.656 215.215 251.689 214.822C252.743 214.429 253.652 213.83 254.417 213.024C255.202 212.197 255.812 211.164 256.246 209.924C256.68 208.663 256.897 207.175 256.897 205.46ZM266.875 202.794C266.875 201.43 266.844 200.097 266.782 198.795C266.741 197.472 266.689 196.129 266.627 194.765C266.896 194.806 267.154 194.848 267.402 194.889C267.65 194.91 267.898 194.92 268.146 194.92C268.394 194.92 268.642 194.91 268.89 194.889C269.138 194.848 269.397 194.806 269.665 194.765C269.603 196.129 269.541 197.472 269.479 198.795C269.438 200.097 269.417 201.43 269.417 202.794C269.417 205.398 269.428 207.661 269.448 209.583C269.469 211.484 269.49 213.189 269.51 214.698C270.978 214.698 272.383 214.688 273.726 214.667C275.07 214.626 276.516 214.502 278.066 214.295C277.963 214.667 277.911 214.977 277.911 215.225C277.911 215.452 277.963 215.731 278.066 216.062C277.116 216.021 276.165 216 275.214 216C274.264 216 273.313 216 272.362 216C271.37 216 270.409 216 269.479 216C268.57 216 267.619 216.021 266.627 216.062C266.689 214.781 266.741 213.479 266.782 212.156C266.844 210.833 266.875 209.49 266.875 208.126V202.794ZM283.239 205.46C283.239 203.703 283.518 202.143 284.076 200.779C284.655 199.394 285.451 198.227 286.463 197.276C287.497 196.325 288.726 195.602 290.152 195.106C291.578 194.61 293.139 194.362 294.833 194.362C296.549 194.362 298.119 194.61 299.545 195.106C300.971 195.602 302.191 196.325 303.203 197.276C304.237 198.227 305.032 199.394 305.59 200.779C306.169 202.143 306.458 203.703 306.458 205.46C306.458 207.217 306.169 208.787 305.59 210.172C305.032 211.536 304.237 212.693 303.203 213.644C302.191 214.595 300.971 215.308 299.545 215.783C298.119 216.238 296.549 216.465 294.833 216.465C293.139 216.465 291.578 216.238 290.152 215.783C288.726 215.308 287.497 214.595 286.463 213.644C285.451 212.693 284.655 211.536 284.076 210.172C283.518 208.787 283.239 207.217 283.239 205.46ZM303.42 205.46C303.42 203.745 303.203 202.267 302.769 201.027C302.335 199.766 301.726 198.733 300.94 197.927C300.176 197.1 299.266 196.491 298.212 196.098C297.179 195.705 296.053 195.509 294.833 195.509C293.635 195.509 292.508 195.705 291.454 196.098C290.421 196.491 289.512 197.1 288.726 197.927C287.962 198.733 287.362 199.766 286.928 201.027C286.494 202.267 286.277 203.745 286.277 205.46C286.277 207.175 286.494 208.663 286.928 209.924C287.362 211.164 287.962 212.197 288.726 213.024C289.512 213.83 290.421 214.429 291.454 214.822C292.508 215.215 293.635 215.411 294.833 215.411C296.053 215.411 297.179 215.215 298.212 214.822C299.266 214.429 300.176 213.83 300.94 213.024C301.726 212.197 302.335 211.164 302.769 209.924C303.203 208.663 303.42 207.175 303.42 205.46ZM331.162 198.547C330.852 198.175 330.459 197.803 329.984 197.431C329.529 197.059 329.012 196.739 328.434 196.47C327.876 196.181 327.245 195.953 326.543 195.788C325.861 195.602 325.127 195.509 324.342 195.509C323.06 195.509 321.862 195.705 320.746 196.098C319.65 196.491 318.689 197.1 317.863 197.927C317.057 198.733 316.416 199.766 315.941 201.027C315.486 202.267 315.259 203.745 315.259 205.46C315.259 206.969 315.465 208.333 315.879 209.552C316.292 210.771 316.891 211.805 317.677 212.652C318.483 213.479 319.454 214.119 320.591 214.574C321.748 215.029 323.05 215.256 324.497 215.256C324.931 215.256 325.385 215.235 325.861 215.194C326.336 215.153 326.791 215.091 327.225 215.008C327.679 214.925 328.093 214.822 328.465 214.698C328.857 214.574 329.188 214.429 329.457 214.264C329.477 213.644 329.488 213.024 329.488 212.404C329.508 211.784 329.519 211.154 329.519 210.513C329.519 209.79 329.498 209.066 329.457 208.343C329.436 207.62 329.405 206.927 329.364 206.266C329.88 206.369 330.376 206.421 330.852 206.421C331.079 206.421 331.306 206.411 331.534 206.39C331.761 206.369 331.978 206.328 332.185 206.266C332.143 206.741 332.112 207.496 332.092 208.529C332.071 209.542 332.061 210.885 332.061 212.559C332.061 212.972 332.061 213.396 332.061 213.83C332.081 214.243 332.092 214.657 332.092 215.07C331.658 215.235 331.11 215.411 330.449 215.597C329.808 215.762 329.116 215.897 328.372 216C327.648 216.124 326.915 216.227 326.171 216.31C325.447 216.413 324.786 216.465 324.187 216.465C322.347 216.465 320.684 216.248 319.196 215.814C317.728 215.359 316.478 214.667 315.445 213.737C314.411 212.807 313.616 211.65 313.058 210.265C312.5 208.88 312.221 207.279 312.221 205.46C312.221 203.703 312.51 202.143 313.089 200.779C313.667 199.394 314.484 198.227 315.538 197.276C316.592 196.325 317.863 195.602 319.351 195.106C320.859 194.61 322.523 194.362 324.342 194.362C325.396 194.362 326.326 194.424 327.132 194.548C327.958 194.651 328.682 194.796 329.302 194.982C329.942 195.168 330.5 195.364 330.976 195.571C331.451 195.778 331.875 195.974 332.247 196.16C332.081 196.449 331.926 196.821 331.782 197.276C331.658 197.731 331.575 198.154 331.534 198.547H331.162ZM345.303 207.351C345.097 207 344.787 206.493 344.373 205.832C343.981 205.15 343.536 204.406 343.04 203.6C342.565 202.773 342.059 201.916 341.521 201.027C340.984 200.118 340.467 199.26 339.971 198.454C339.496 197.627 339.062 196.894 338.669 196.253C338.277 195.592 337.977 195.096 337.77 194.765C338.06 194.806 338.339 194.848 338.607 194.889C338.897 194.91 339.186 194.92 339.475 194.92C339.765 194.92 340.044 194.91 340.312 194.889C340.602 194.848 340.891 194.806 341.18 194.765C342.11 196.563 343.051 198.33 344.001 200.066C344.973 201.802 345.996 203.61 347.07 205.491C347.546 204.747 348.042 203.931 348.558 203.042C349.075 202.153 349.592 201.244 350.108 200.314C350.625 199.384 351.121 198.454 351.596 197.524C352.072 196.573 352.516 195.654 352.929 194.765C353.446 194.868 353.849 194.92 354.138 194.92C354.428 194.92 354.831 194.868 355.347 194.765C354.355 196.274 353.467 197.638 352.681 198.857C351.896 200.076 351.204 201.182 350.604 202.174C350.005 203.166 349.478 204.065 349.023 204.871C348.569 205.656 348.176 206.369 347.845 207.01C347.845 207.775 347.845 208.591 347.845 209.459C347.866 210.327 347.887 211.185 347.907 212.032C347.928 212.859 347.949 213.634 347.969 214.357C348.011 215.06 348.052 215.628 348.093 216.062C347.618 216.021 347.112 216 346.574 216C346.037 216 345.531 216.021 345.055 216.062C345.179 214.987 345.252 213.685 345.272 212.156C345.293 210.627 345.303 209.025 345.303 207.351ZM361.678 202.794C361.678 201.43 361.647 200.097 361.585 198.795C361.543 197.472 361.492 196.129 361.43 194.765C361.698 194.806 361.957 194.848 362.205 194.889C362.453 194.91 362.701 194.92 362.949 194.92C363.197 194.92 363.445 194.91 363.693 194.889C363.941 194.848 364.199 194.806 364.468 194.765C364.406 196.129 364.344 197.472 364.282 198.795C364.24 200.097 364.22 201.43 364.22 202.794C364.22 205.398 364.23 207.661 364.251 209.583C364.271 211.484 364.292 213.189 364.313 214.698C365.78 214.698 367.185 214.688 368.529 214.667C369.872 214.626 371.319 214.502 372.869 214.295C372.765 214.667 372.714 214.977 372.714 215.225C372.714 215.452 372.765 215.731 372.869 216.062C371.918 216.021 370.967 216 370.017 216C369.066 216 368.115 216 367.165 216C366.173 216 365.212 216 364.282 216C363.372 216 362.422 216.021 361.43 216.062C361.492 214.781 361.543 213.479 361.585 212.156C361.647 210.833 361.678 209.49 361.678 208.126V202.794ZM383.157 206.421C383.694 206.421 384.252 206.431 384.831 206.452C385.409 206.473 385.967 206.483 386.505 206.483C387.083 206.483 387.662 206.483 388.241 206.483C388.819 206.462 389.398 206.442 389.977 206.421L386.536 198.547L383.157 206.421ZM396.89 216.062C396.6 216.021 396.321 216 396.053 216C395.805 216 395.536 216 395.247 216C394.957 216 394.678 216 394.41 216C394.162 216 393.893 216.021 393.604 216.062C393.459 215.587 393.263 215.018 393.015 214.357C392.767 213.675 392.488 212.972 392.178 212.249C391.888 211.505 391.589 210.761 391.279 210.017C390.969 209.252 390.679 208.529 390.411 207.847C389.749 207.826 389.078 207.816 388.396 207.816C387.714 207.795 387.032 207.785 386.35 207.785C385.709 207.785 385.079 207.795 384.459 207.816C383.839 207.816 383.208 207.826 382.568 207.847C381.906 209.459 381.307 210.999 380.77 212.466C380.232 213.913 379.829 215.111 379.561 216.062C379.209 216.021 378.827 216 378.414 216C378 216 377.618 216.021 377.267 216.062C378.941 212.445 380.573 208.849 382.165 205.274C383.756 201.699 385.358 198.061 386.97 194.362H387.559C388.055 195.561 388.592 196.863 389.171 198.268C389.749 199.653 390.338 201.058 390.938 202.484C391.537 203.91 392.136 205.326 392.736 206.731C393.335 208.136 393.893 209.449 394.41 210.668C394.947 211.867 395.422 212.941 395.836 213.892C396.27 214.843 396.621 215.566 396.89 216.062ZM405.596 208.591C405.596 209.645 405.617 210.689 405.658 211.722C405.7 212.755 405.741 213.799 405.782 214.853C406.175 214.894 406.64 214.936 407.177 214.977C407.715 214.998 408.262 215.008 408.82 215.008C409.482 215.008 410.112 214.894 410.711 214.667C411.331 214.44 411.869 214.109 412.323 213.675C412.778 213.22 413.14 212.673 413.408 212.032C413.677 211.371 413.811 210.627 413.811 209.8C413.811 208.911 413.646 208.188 413.315 207.63C413.005 207.051 412.551 206.607 411.951 206.297C411.352 205.966 410.629 205.739 409.781 205.615C408.955 205.491 408.025 205.429 406.991 205.429H405.596V208.591ZM407.27 204.282C407.994 204.282 408.707 204.21 409.409 204.065C410.133 203.92 410.773 203.683 411.331 203.352C411.889 203.001 412.334 202.546 412.664 201.988C413.016 201.409 413.191 200.686 413.191 199.818C413.191 198.971 413.036 198.299 412.726 197.803C412.416 197.286 412.024 196.894 411.548 196.625C411.073 196.336 410.536 196.15 409.936 196.067C409.337 195.964 408.738 195.912 408.138 195.912C407.601 195.912 407.146 195.933 406.774 195.974C406.402 195.995 406.072 196.026 405.782 196.067C405.741 197.059 405.7 198.041 405.658 199.012C405.617 199.983 405.596 200.965 405.596 201.957V204.282H407.27ZM403.054 202.763C403.054 201.399 403.023 200.056 402.961 198.733C402.92 197.41 402.868 196.088 402.806 194.765C403.344 194.806 403.891 194.848 404.449 194.889C405.007 194.91 405.555 194.92 406.092 194.92C406.63 194.92 407.177 194.899 407.735 194.858C408.293 194.796 408.841 194.765 409.378 194.765C410.267 194.765 411.104 194.837 411.889 194.982C412.675 195.106 413.367 195.344 413.966 195.695C414.566 196.026 415.041 196.48 415.392 197.059C415.744 197.638 415.919 198.361 415.919 199.229C415.919 200.758 415.434 201.957 414.462 202.825C413.512 203.693 412.261 204.303 410.711 204.654V204.716C412.551 204.799 413.997 205.243 415.051 206.049C416.126 206.855 416.663 208.147 416.663 209.924C416.663 211.081 416.426 212.053 415.95 212.838C415.475 213.623 414.855 214.264 414.09 214.76C413.326 215.235 412.478 215.576 411.548 215.783C410.639 215.969 409.73 216.062 408.82 216.062C408.324 216.062 407.818 216.052 407.301 216.031C406.805 216.01 406.309 216 405.813 216C405.317 216 404.811 216 404.294 216C403.798 216 403.302 216.021 402.806 216.062C402.868 214.739 402.92 213.427 402.961 212.125C403.023 210.802 403.054 209.459 403.054 208.095V202.763ZM423.353 214.605C423.353 214.13 423.528 213.716 423.88 213.365C424.231 213.014 424.644 212.838 425.12 212.838C425.595 212.838 426.008 213.014 426.36 213.365C426.711 213.716 426.887 214.13 426.887 214.605C426.887 215.08 426.711 215.483 426.36 215.814C426.008 216.124 425.595 216.279 425.12 216.279C424.644 216.279 424.231 216.124 423.88 215.814C423.528 215.483 423.353 215.08 423.353 214.605ZM451.104 214.791C450.918 214.956 450.618 215.142 450.205 215.349C449.812 215.535 449.326 215.711 448.748 215.876C448.19 216.021 447.559 216.155 446.857 216.279C446.154 216.403 445.42 216.465 444.656 216.465C443.023 216.465 441.514 216.238 440.13 215.783C438.745 215.308 437.546 214.595 436.534 213.644C435.542 212.693 434.756 211.536 434.178 210.172C433.62 208.787 433.341 207.217 433.341 205.46C433.341 203.703 433.62 202.143 434.178 200.779C434.756 199.394 435.552 198.227 436.565 197.276C437.598 196.325 438.828 195.602 440.254 195.106C441.68 194.61 443.25 194.362 444.966 194.362C446.33 194.362 447.57 194.507 448.686 194.796C449.822 195.065 450.825 195.395 451.693 195.788C451.527 196.077 451.393 196.47 451.29 196.966C451.186 197.462 451.104 197.875 451.042 198.206L450.856 198.268C450.649 198.02 450.36 197.741 449.988 197.431C449.616 197.121 449.182 196.821 448.686 196.532C448.19 196.243 447.632 196.005 447.012 195.819C446.392 195.612 445.71 195.509 444.966 195.509C443.746 195.509 442.61 195.705 441.556 196.098C440.522 196.491 439.613 197.1 438.828 197.927C438.063 198.733 437.464 199.766 437.03 201.027C436.596 202.267 436.379 203.745 436.379 205.46C436.379 207.175 436.596 208.663 437.03 209.924C437.464 211.164 438.063 212.197 438.828 213.024C439.613 213.83 440.522 214.429 441.556 214.822C442.61 215.215 443.746 215.411 444.966 215.411C445.71 215.411 446.392 215.318 447.012 215.132C447.652 214.946 448.231 214.729 448.748 214.481C449.285 214.212 449.76 213.933 450.174 213.644C450.608 213.334 450.969 213.065 451.259 212.838L451.383 212.962L451.104 214.791ZM456.617 205.46C456.617 203.703 456.896 202.143 457.454 200.779C458.033 199.394 458.829 198.227 459.841 197.276C460.875 196.325 462.104 195.602 463.53 195.106C464.956 194.61 466.517 194.362 468.211 194.362C469.927 194.362 471.497 194.61 472.923 195.106C474.349 195.602 475.569 196.325 476.581 197.276C477.615 198.227 478.41 199.394 478.968 200.779C479.547 202.143 479.836 203.703 479.836 205.46C479.836 207.217 479.547 208.787 478.968 210.172C478.41 211.536 477.615 212.693 476.581 213.644C475.569 214.595 474.349 215.308 472.923 215.783C471.497 216.238 469.927 216.465 468.211 216.465C466.517 216.465 464.956 216.238 463.53 215.783C462.104 215.308 460.875 214.595 459.841 213.644C458.829 212.693 458.033 211.536 457.454 210.172C456.896 208.787 456.617 207.217 456.617 205.46ZM476.798 205.46C476.798 203.745 476.581 202.267 476.147 201.027C475.713 199.766 475.104 198.733 474.318 197.927C473.554 197.1 472.644 196.491 471.59 196.098C470.557 195.705 469.431 195.509 468.211 195.509C467.013 195.509 465.886 195.705 464.832 196.098C463.799 196.491 462.89 197.1 462.104 197.927C461.34 198.733 460.74 199.766 460.306 201.027C459.872 202.267 459.655 203.745 459.655 205.46C459.655 207.175 459.872 208.663 460.306 209.924C460.74 211.164 461.34 212.197 462.104 213.024C462.89 213.83 463.799 214.429 464.832 214.822C465.886 215.215 467.013 215.411 468.211 215.411C469.431 215.411 470.557 215.215 471.59 214.822C472.644 214.429 473.554 213.83 474.318 213.024C475.104 212.197 475.713 211.164 476.147 209.924C476.581 208.663 476.798 207.175 476.798 205.46ZM488.761 194.362C490.187 197.297 491.623 200.149 493.07 202.918C494.537 205.687 496.066 208.529 497.658 211.443C497.864 211.05 498.164 210.492 498.557 209.769C498.949 209.025 499.404 208.178 499.921 207.227C500.437 206.276 500.985 205.253 501.564 204.158C502.163 203.042 502.762 201.916 503.362 200.779C503.982 199.642 504.591 198.526 505.191 197.431C505.79 196.336 506.348 195.313 506.865 194.362H507.268C507.495 196.346 507.702 198.268 507.888 200.128C508.094 201.967 508.301 203.786 508.508 205.584C508.714 207.361 508.921 209.128 509.128 210.885C509.334 212.621 509.562 214.347 509.81 216.062C509.562 216.021 509.314 216 509.066 216C508.838 216 508.601 216 508.353 216C508.105 216 507.857 216 507.609 216C507.381 216 507.144 216.021 506.896 216.062C506.668 213.313 506.441 210.647 506.214 208.064C505.986 205.481 505.707 202.846 505.377 200.159H505.315C503.889 202.763 502.483 205.357 501.099 207.94C499.735 210.503 498.433 213.189 497.193 216H496.914C495.674 213.396 494.372 210.792 493.008 208.188C491.664 205.563 490.311 202.887 488.947 200.159H488.885C488.74 201.44 488.575 202.835 488.389 204.344C488.223 205.832 488.068 207.31 487.924 208.777C487.779 210.224 487.655 211.598 487.552 212.9C487.448 214.181 487.397 215.235 487.397 216.062C487.066 216.021 486.704 216 486.312 216C485.919 216 485.557 216.021 485.227 216.062C485.495 214.388 485.774 212.621 486.064 210.761C486.353 208.901 486.632 207.031 486.901 205.15C487.169 203.269 487.417 201.42 487.645 199.601C487.872 197.762 488.068 196.015 488.234 194.362H488.761Z" fill="black"/>
</g>
<defs>
<clipPath id="clip0">
<rect width="526" height="236" fill="white"/>
</clipPath>
</defs>
</svg>
